# xmcd
#
# Track frame offsets: 
#        150
#        17514
#        29572
#        44720
#        78077
#        96434
#        128084
#        144839
#        156509
#        174012
#        193925
#
# Disc length: 2692 seconds
#
# Revision: 0
# Processed by: cddbd v1.5.2PL0 Copyright (c) Steve Scherf et al.
# Submitted via: ExactAudioCopy v1.3
#
DISCID=8c0a820b
DTITLE=Big Ed Sullivan - It Takes A Big Big Man
DYEAR=2008
DGENRE=Blues Rock
TTITLE0=It Takes A Big Big Man
TTITLE1=Top Shelf
TTITLE2=Too Tired To Pray
TTITLE3=Bitch Bitch Bitch
TTITLE4=Bury Me In Black
TTITLE5=The Cheating Kind
TTITLE6=On The Road To Nowhere
TTITLE7=I Fought The Law
TTITLE8=Bless Me Father
TTITLE9=Guilty
TTITLE10=Rockin Lil Mama
EXTD=
EXTT0=
EXTT1=
EXTT2=
EXTT3=
EXTT4=
EXTT5=
EXTT6=
EXTT7=
EXTT8=
EXTT9=
EXTT10=
PLAYORDER=
